<svg width="584" height="477" viewBox="0 0 584 477" fill="none" xmlns="http://www.w3.org/2000/svg">
<path d="M108.814 465.439C96.0945 458.834 76.7577 447.574 66.2397 440.239C46.1729 426.538 2.61725 384.694 0.164249 376.856C-0.816951 373.924 2.61717 367.068 9.95224 356.55C26.1061 333.061 34.4225 313.234 41.7696 278.975C53.52 224.16 54.9798 219.266 67.7115 193.324C80.4312 167.872 80.6824 167.382 132.315 116.24C184.199 64.8462 198.881 47.4718 217.225 16.3965C228.975 -2.94036 234.599 -4.89081 240.475 9.04941C248.3 28.135 238.763 59.9522 213.551 98.8532C194.956 127.236 189.811 137.766 189.811 147.554C189.811 164.929 209.878 170.062 232.146 158.563C247.319 150.737 332.719 96.8908 398.544 53.5864C428.398 34.0102 455.322 16.6358 458.253 14.9247C465.6 11.0119 477.339 11.5025 481.012 15.9059C490.8 27.6564 468.771 47.7231 362.574 124.065C350.824 132.633 340.796 141.2 339.815 143.151C338.104 148.284 345.93 156.612 352.535 156.612C362.814 156.612 409.313 125.046 443.081 95.1916C471.954 69.5009 512.339 38.4136 526.279 30.8273C553.681 16.3845 569.344 27.8956 550.749 48.6923C537.288 63.6137 471.224 115.258 422.032 149.026C397.562 165.91 376.275 181.812 374.803 184.265C371.381 189.65 375.533 196.746 382.88 197.727C397.562 199.929 453.359 166.891 528.732 111.585C560.789 87.8446 573.269 82.2206 580.125 88.0959C588.693 95.1916 581.107 107.672 553.693 131.652C526.77 155.141 490.561 178.39 439.168 204.332L392.668 227.821L393.398 236.879C394.128 245.196 394.87 245.938 402.205 246.667C407.338 247.158 426.927 242.013 454.819 232.715C507.672 215.102 526.518 210.447 545.113 210.447C559.795 210.447 566.652 214.36 566.652 222.688C566.652 230.035 553.442 236.15 504.25 252.303C448.705 270.408 424.964 280.196 355.957 314.215C326.832 328.406 287.189 346.271 267.864 353.858C248.528 361.444 225.29 371.471 216.232 376.126C192.491 388.367 172.915 410.384 152.849 446.605C144.042 462.508 135.714 475.969 134.493 476.46C133.272 476.699 121.773 471.805 108.802 465.451L108.814 465.439Z" fill="#ABA4FF" style="fill:#ABA4FF;fill:color(display-p3 0.6697 0.6448 1.0000);fill-opacity:1;"/>
</svg>
