<svg width="146" height="174" viewBox="0 0 146 174" fill="none" xmlns="http://www.w3.org/2000/svg">
<path d="M61.1816 14.6893C65.3457 -5.86778 69.9881 -4.88611 75.8633 17.8728C85.6513 56.0437 91.2759 63.1394 119.91 74.16C138.014 81.0163 141.448 85.91 130.428 88.8416C115.016 92.5151 97.3905 103.033 90.5459 112.331C84.6707 120.408 78.556 138.764 72.4414 166.656C70.7303 173.512 66.5657 175.463 64.8545 170.33H64.8428C64.3522 168.619 61.6601 158.579 58.7285 148.061C56.0362 137.292 52.1235 125.792 50.1611 122.119C44.7765 111.35 31.566 101.323 15.1729 95.1961C6.85658 92.0132 0 88.5904 0 87.3699C0.000907169 86.1491 7.34763 81.7456 16.6445 77.8211C44.5369 65.1014 53.356 52.3697 61.1816 14.6893ZM125.785 134.121C130.919 134.121 145.122 150.514 143.65 154.679C141.449 160.553 138.995 159.572 128.729 149.054L128.717 149.042C119.91 139.984 118.689 134.121 125.785 134.121ZM5.38477 14.7019C8.80693 13.9721 24.4689 32.075 24.4697 36.7303C24.4697 41.1337 17.6142 38.202 9.05859 29.8738C-0.238879 20.8157 -1.45971 15.9225 5.38477 14.7019ZM130.679 17.1424C139.246 8.08453 142.178 6.37362 144.631 8.575C148.304 12.2485 142.92 21.0552 131.421 29.8621C121.872 37.2091 119.922 37.6879 119.922 32.3152H119.91C119.91 30.3528 124.804 23.5082 130.679 17.1424Z" fill="#6D62FF" style="fill:#6D62FF;fill:color(display-p3 0.4275 0.3843 1.0000);fill-opacity:1;"/>
</svg>
