<svg width="812" height="830" viewBox="0 0 812 830" fill="none" xmlns="http://www.w3.org/2000/svg">
<path d="M230.139 784.619C289.597 810.31 336.336 823.52 384.056 828.175L384.068 828.235C435.94 833.129 482.439 827.983 533.581 811.099C601.858 788.831 669.884 743.313 712.219 692.41C783.428 606.519 819.41 494.686 810.351 387.257C798.852 251.193 736.45 139.611 631.222 67.4213C589.378 38.787 534.072 15.0467 484.401 4.52871C452.835 -2.07644 374.04 -1.34655 343.695 6.00049C315.803 12.845 304.543 18.2296 304.543 24.5954C304.543 30.2314 306.996 30.4707 381.627 27.0484C418.816 25.5766 431.788 25.8279 454.547 29.2501C578.621 47.6058 686.289 125.671 740.124 236.523C754.806 266.629 769.488 312.877 776.093 348.356C783.931 392.402 783.44 454.565 774.873 495.919C771.45 512.802 764.355 538.003 759.7 551.955C715.402 678.96 611.898 768.764 480.728 794.216C433.75 803.262 368.895 800.33 320.936 786.869C294.264 779.521 256.823 764.6 256.823 761.417L237.5 748.18C231.5 745.18 202.031 728.583 183.436 715.863C164.841 703.131 141.843 683.065 127.891 667.162L112.921 655.68L94.0871 640C90.1743 640 70.3469 605.993 59.8289 581.271C39.2715 533.312 31.9364 500.526 29.974 449.132C27.2817 377.181 40.0014 322.856 74.7503 255.812C134.951 139.815 252.659 66.4042 398.259 53.9238C409.268 52.9426 419.056 50.9802 420.037 49.7596C423.459 43.8844 412.702 42.6639 365.712 43.8844C298.655 45.5955 264.888 53.4332 212.764 79.6145C111.94 130.278 36.8184 230.6 7.9448 353.692C0.597763 385.498 -2.33377 450.353 2.06967 484.12C13.5689 570.263 52.7212 649.548 112.921 709.007C147.18 742.774 174.593 760.388 230.139 784.619Z" fill="#6D62FF" style="fill:#6D62FF;fill:color(display-p3 0.4275 0.3843 1.0000);fill-opacity:1;"/>
</svg>
