<svg width="97" height="32" viewBox="0 0 97 32" fill="none" xmlns="http://www.w3.org/2000/svg">
<path d="M6.15689 31.0822C-1.22388 27.2031 -2.19315 10.9237 4.46997 2.90983C6.15688 0.8847 8.13871 0 11.0485 0C13.2407 0 13.5789 0.125779 14.9276 1.47655C16.5733 3.12222 16.6558 4.38639 15.2225 5.35565C14.4203 5.8609 14.1687 5.81966 13.0303 4.85041C11.5538 3.62749 10.5845 3.54294 9.15125 4.51219C7.67469 5.52476 7.12613 6.24034 5.98777 8.64492C3.03464 14.8028 4.04722 24.2499 8.01291 27.1598L9.15125 28.0032L10.3329 27.1598C11.7662 26.106 13.2015 23.2374 13.7068 20.3688L14.0862 18.1333H11.9353C10.7124 18.1333 9.53071 17.923 9.23581 17.6281C8.47691 16.8692 8.6027 15.2668 9.48946 14.844C10.4587 14.2955 15.6886 13.7902 16.7012 14.1264C18.6417 14.7162 18.8108 18.387 17.1239 23.8272C15.9855 27.5805 14.1295 30.2366 11.9786 31.208C9.65858 32.3051 8.39443 32.2618 6.15896 31.0822H6.15689Z" fill="#6D62FF" style="fill:#6D62FF;fill:color(display-p3 0.4275 0.3843 1.0000);fill-opacity:1;"/>
<path d="M22.4796 28.7188C21.762 27.9166 21.762 27.2423 22.226 16.1927C22.4796 9.73998 22.9003 4.13067 23.1107 3.70997C23.6159 2.74072 25.3029 2.7407 26.2309 3.66871C26.864 4.25851 26.9052 4.97618 26.6949 8.39126C26.5691 10.6267 26.3154 15.8133 26.1896 19.9048C26.0205 24.0808 25.6844 27.7908 25.4307 28.3394C24.7976 29.6056 23.4489 29.7726 22.4776 28.7188H22.4796Z" fill="#6D62FF" style="fill:#6D62FF;fill:color(display-p3 0.4275 0.3843 1.0000);fill-opacity:1;"/>
<path d="M31.1245 28.4239C30.1965 27.2422 30.1553 28.0444 31.2937 14.3388C31.6731 10.0369 32.0526 6.02999 32.1783 5.35564C32.4732 3.87907 33.4013 2.95105 34.6242 2.95105C36.3111 2.95105 36.9442 3.96363 40.6129 12.8622L41.2873 14.5491L41.7513 13.4953C46.1377 3.49961 47.1069 2.06635 49.2166 2.7407C50.4395 3.12015 50.819 5.10197 51.5366 15.6029C51.9161 20.8328 52.2956 25.6832 52.4214 26.4421C52.5905 27.4114 52.4626 27.9599 51.7882 28.6343C50.6911 29.7314 49.9755 29.7726 49.0475 28.7188C48.499 28.129 48.2041 26.5679 47.9092 22.5197C47.6555 19.5253 47.3193 15.9411 47.1502 14.5491L46.8554 12.0187L46.0531 13.916C44.6611 17.2486 43.1 19.9893 42.4257 20.3688C42.0462 20.6225 41.244 20.6637 40.6129 20.4946C39.6849 20.2842 39.1797 19.6099 37.998 17.0795C36.5647 13.9593 35.2985 12.9468 35.2985 14.8873C35.2985 15.3926 35.0882 18.5561 34.8758 21.8887C34.5809 26.6112 34.3272 28.0878 33.7787 28.7209C32.8094 29.818 32.133 29.7334 31.1225 28.426L31.1245 28.4239Z" fill="#6D62FF" style="fill:#6D62FF;fill:color(display-p3 0.4275 0.3843 1.0000);fill-opacity:1;"/>
<path d="M74.9864 28.8033C74.0172 28.0011 73.5944 25.4707 73.0046 17.2053C72.8355 14.4212 72.5818 13.0725 72.2457 13.0725C71.9508 13.0725 71.1073 14.5058 70.3051 16.2773C68.7028 19.946 67.6489 20.9173 65.9187 20.2409C65.0753 19.946 64.4009 19.0592 63.3883 16.7825C62.6294 15.0956 61.8705 13.3241 61.7014 12.8601C61.0683 11.1732 60.6889 13.2396 60.394 19.8181C60.2682 23.4023 60.0145 26.7762 59.8887 27.3247C59.5505 28.758 58.243 29.3065 56.9789 28.4631C55.7127 27.6609 55.6714 26.2709 56.5994 15.8112C57.6966 3.116 57.7378 2.94896 60.1836 2.94896C61.7014 2.94896 62.2087 3.66663 64.5267 9.14808C65.496 11.4248 66.4673 13.3654 66.7189 13.4499C66.9292 13.4912 68.1109 11.2577 69.3338 8.38916C72.2024 1.68274 73.0871 0.754735 75.1122 2.2313C75.7866 2.73655 76.0402 4.38222 76.8837 13.7448C77.4322 19.7336 77.9808 25.3841 78.1066 26.2276C78.317 27.4505 78.1911 27.9558 77.5168 28.6322C76.4197 29.7293 76.1248 29.7293 74.9864 28.8013V28.8033Z" fill="#6D62FF" style="fill:#6D62FF;fill:color(display-p3 0.4275 0.3843 1.0000);fill-opacity:1;"/>
<path d="M83.7592 28.4672C81.7341 27.3701 81.567 26.1905 81.9032 15.6875C82.2414 5.22779 82.5363 2.61286 83.5489 1.89726C83.9283 1.60236 86.6278 1.26417 89.5789 1.13837C94.3014 0.884712 95.0624 0.969249 95.5264 1.56111C95.7801 1.94057 96.0316 2.48912 96.0316 2.74278C96.0316 4.17604 94.9345 4.64005 90.8863 4.89371C86.1638 5.23192 86.4154 4.97825 86.2896 9.70079L86.205 12.8643H89.284C92.2784 12.8643 92.4475 12.9055 93.0373 14.046C93.6704 15.1843 93.6704 15.2689 92.699 16.0711C92.0247 16.6196 91.0534 16.8733 89.4943 16.8733C85.9101 16.8733 85.9101 16.8733 85.9101 21.1339C85.9101 25.4357 85.4874 25.1408 90.8018 24.3819C94.6809 23.8334 95.6089 24.1283 95.6089 25.9843C95.6089 27.2918 94.8067 27.6712 90.2945 28.4301C85.7823 29.2323 85.1492 29.2323 83.7571 28.4714L83.7592 28.4672Z" fill="#6D62FF" style="fill:#6D62FF;fill:color(display-p3 0.4275 0.3843 1.0000);fill-opacity:1;"/>
</svg>
