<svg width="616" height="509" viewBox="0 0 616 509" fill="none" xmlns="http://www.w3.org/2000/svg">
<path d="M244.601 8.62915C246.824 7.91329 249.277 7.75395 251.758 8.43677C254.166 9.09965 256.083 10.4118 257.556 11.8254C260.141 14.3074 262.03 17.7577 263.548 21.2454L263.847 21.9426L263.861 21.9788L263.877 22.0149C268.785 33.985 267.864 48.8088 263.065 64.8176C258.219 80.9829 249.123 99.3649 236.265 119.204L236.243 119.238C226.945 133.43 221.264 142.782 217.898 149.684C214.602 156.444 213.811 160.292 213.811 163.555C213.812 166.294 214.572 168.03 215.505 169.178C216.471 170.367 218.077 171.48 220.632 172.141C225.925 173.51 234.446 172.634 244.476 167.455L244.479 167.453C259.184 159.869 344.162 106.314 410.146 62.9036L410.157 62.8967C439.884 43.4043 467.056 25.8629 470.221 24.0159L470.355 23.9368L470.492 23.8635C475.677 21.1021 481.929 20.0726 487.352 20.304C490.116 20.4219 492.956 20.878 495.574 21.7913C497.956 22.6219 500.633 24.0014 502.741 26.3079L503.155 26.7815L503.159 26.7864C505.266 29.3156 506.806 32.4656 507.069 36.2405C507.324 39.8948 506.328 43.3787 504.734 46.5872C501.677 52.7405 495.546 59.5803 486.682 67.6721C468.716 84.0722 436.261 108.447 383.287 146.53C377.548 150.714 372.254 154.883 368.314 158.205C366.709 159.56 365.372 160.738 364.341 161.695C364.495 161.892 364.672 162.102 364.877 162.319C365.605 163.09 366.453 163.734 367.246 164.152C367.632 164.355 367.953 164.477 368.193 164.545C368.324 164.582 368.417 164.598 368.473 164.606C368.585 164.575 369.358 164.431 371.04 163.763C372.961 163 375.449 161.809 378.464 160.178C384.476 156.926 392.066 152.206 400.508 146.478C417.378 135.031 437.172 119.883 453.781 105.198C468.376 92.2132 485.829 77.9071 501.39 65.8889C516.782 54.0006 530.842 43.944 538.455 39.801L538.549 39.7502C546.01 35.8175 553.059 33.4385 559.288 32.6624C565.313 31.9116 571.653 32.551 576.488 36.0901C581.936 40.078 583.666 46.3682 582.483 52.5911C581.384 58.3728 577.846 64.2838 572.713 70.0247L572.701 70.0383L572.689 70.051C565.394 78.1373 544.894 95.2297 520.711 114.099C496.264 133.173 467.317 154.627 442.56 171.622C430.395 180.016 419.045 188.15 410.579 194.469C406.336 197.636 402.87 200.308 400.406 202.309C399.209 203.282 398.313 204.043 397.704 204.595C397.938 204.959 398.548 205.542 399.694 205.758L399.939 205.798L400.003 205.806L400.066 205.816C400.316 205.853 401.555 205.887 404.257 205.184C406.804 204.521 410.077 203.36 414.098 201.627C422.131 198.165 432.512 192.701 444.977 185.334C469.87 170.622 502.428 148.704 539.999 121.135C555.986 109.296 567.724 101.483 576.56 97.4553C585.162 93.535 594.059 91.8806 601.227 97.9348C604.868 100.95 607.328 105.124 607.462 110.318C607.583 115.051 605.734 119.587 603.24 123.695C598.285 131.857 588.676 141.676 574.96 153.673L574.952 153.68C547.34 177.77 510.49 201.366 458.773 227.472L458.774 227.473L417.073 248.537L417.367 252.18C417.451 253.134 417.53 253.908 417.61 254.554C417.999 254.601 418.444 254.652 418.961 254.703C418.846 254.693 419.115 254.722 419.973 254.633C420.77 254.551 421.839 254.392 423.202 254.138C425.928 253.629 429.521 252.795 433.932 251.628C442.737 249.299 454.435 245.744 468.289 241.126H468.29C520.922 223.586 541.003 218.448 561.113 218.448C568.868 218.448 575.959 219.427 581.345 222.491C584.183 224.106 586.625 226.345 588.31 229.316C589.985 232.27 590.651 235.49 590.651 238.688C590.651 243.377 588.375 247.124 585.255 250.013C582.339 252.713 578.265 255.087 573.315 257.426C563.338 262.141 547.259 267.855 522.746 275.905L522.737 275.907L522.729 275.909C467.626 293.87 444.244 303.499 375.494 337.391L375.461 337.406C346.245 351.642 306.391 369.609 286.788 377.305H286.786C267.509 384.868 244.589 394.77 235.897 399.236L235.898 399.237C214.171 410.44 195.563 430.893 175.847 466.482L175.846 466.481C171.395 474.517 167.05 481.968 163.638 487.508C161.939 490.266 160.425 492.624 159.222 494.368C158.63 495.226 158.036 496.047 157.484 496.727C157.216 497.058 156.858 497.479 156.443 497.892C156.283 498.051 155.189 499.195 153.477 499.883L152.774 500.165L152.032 500.311C150.505 500.61 149.219 500.398 148.905 500.349C148.357 500.263 147.859 500.141 147.484 500.039C146.72 499.833 145.885 499.553 145.071 499.259C143.412 498.66 141.295 497.805 138.909 496.784C134.109 494.732 127.864 491.86 121.283 488.636L111.229 483.711L111.555 483.384C99.8083 476.876 86.1043 468.688 77.663 462.801V462.8C67.0549 455.544 50.795 441.307 37.0566 428.12C30.1227 421.465 23.6792 414.932 18.7704 409.508C16.324 406.805 14.1784 404.29 12.5234 402.119C11.1403 400.306 9.38347 397.837 8.58002 395.395L8.57806 395.396C8.57078 395.374 8.56565 395.351 8.55853 395.329C8.54947 395.301 8.53804 395.273 8.52924 395.245L8.53217 395.244C7.65147 392.479 8.0368 389.822 8.47748 388.023C8.96247 386.042 9.78855 384.016 10.747 382.047C12.6655 378.106 15.6229 373.379 19.3603 368.017C34.8266 345.528 42.7816 326.71 49.9472 293.298C55.7971 266.009 59.1732 250.711 62.7158 239.005C66.3364 227.041 70.1213 218.856 76.5292 205.799L76.5419 205.774L76.5556 205.747C82.9331 192.986 86.5257 185.759 95.2831 175.284C103.695 165.223 117.018 151.98 142.685 126.556C194.461 75.2703 208.535 58.4855 226.336 28.3303L226.361 28.2864L226.389 28.2424C229.403 23.2818 232.21 19.1202 234.882 15.9631C237.377 13.015 240.576 9.92521 244.601 8.62915Z" stroke="#6D62FF" style="stroke:#6D62FF;stroke:color(display-p3 0.4275 0.3843 1.0000);stroke-opacity:1;" stroke-width="16"/>
</svg>
