<svg width="170" height="32" viewBox="0 0 170 32" fill="none" xmlns="http://www.w3.org/2000/svg">
<g clip-path="url(#clip0_2023_6094)">
<path d="M6.15689 31.0822C-1.22388 27.2031 -2.19315 10.9237 4.46997 2.90983C6.15688 0.8847 8.13871 0 11.0485 0C13.2407 0 13.5789 0.125779 14.9276 1.47655C16.5733 3.12222 16.6558 4.38639 15.2225 5.35565C14.4203 5.8609 14.1687 5.81966 13.0303 4.85041C11.5538 3.62749 10.5845 3.54294 9.15125 4.51219C7.67469 5.52476 7.12613 6.24034 5.98777 8.64492C3.03464 14.8028 4.04722 24.2499 8.01291 27.1598L9.15125 28.0032L10.3329 27.1598C11.7662 26.106 13.2015 23.2374 13.7068 20.3688L14.0862 18.1333H11.9353C10.7124 18.1333 9.53071 17.923 9.23581 17.6281C8.47691 16.8692 8.6027 15.2668 9.48946 14.844C10.4587 14.2955 15.6886 13.7902 16.7012 14.1264C18.6417 14.7162 18.8108 18.387 17.1239 23.8272C15.9855 27.5805 14.1295 30.2366 11.9786 31.208C9.65858 32.3051 8.39443 32.2618 6.15896 31.0822H6.15689Z" fill="#6D62FF"/>
<path d="M22.4793 28.7195C21.7617 27.9173 21.7617 27.243 22.2257 16.1934C22.4793 9.74071 22.9 4.1314 23.1104 3.7107C23.6156 2.74145 25.3026 2.74143 26.2306 3.66944C26.8637 4.25924 26.9049 4.97691 26.6946 8.39199C26.5688 10.6274 26.3151 15.814 26.1893 19.9055C26.0202 24.0815 25.6841 27.7915 25.4304 28.3401C24.7973 29.6063 23.4486 29.7733 22.4773 28.7195H22.4793Z" fill="#6D62FF"/>
<path d="M31.1246 28.4248C30.1966 27.2431 30.1554 28.0453 31.2938 14.3397C31.6732 10.0378 32.0527 6.03093 32.1784 5.35658C32.4733 3.88001 33.4014 2.95199 34.6243 2.95199C36.3112 2.95199 36.9443 3.96457 40.613 12.8631L41.2874 14.55L41.7514 13.4962C46.1378 3.50056 47.107 2.06729 49.2167 2.74164C50.4396 3.12109 50.8191 5.10291 51.5367 15.6038C51.9162 20.8337 52.2957 25.6841 52.4215 26.443C52.5906 27.4123 52.4627 27.9608 51.7883 28.6352C50.6912 29.7323 49.9756 29.7735 49.0476 28.7197C48.4991 28.1299 48.2042 26.5688 47.9093 22.5206C47.6556 19.5262 47.3194 15.942 47.1503 14.55L46.8555 12.0196L46.0532 13.9169C44.6612 17.2495 43.1001 19.9902 42.4258 20.3697C42.0463 20.6234 41.2441 20.6646 40.613 20.4955C39.685 20.2851 39.1798 19.6108 37.9981 17.0804C36.5648 13.9602 35.2986 12.9477 35.2986 14.8882C35.2986 15.3935 35.0883 18.557 34.8759 21.8896C34.581 26.6121 34.3273 28.0887 33.7788 28.7218C32.8095 29.8189 32.1331 29.7343 31.1226 28.4269L31.1246 28.4248Z" fill="#6D62FF"/>
<path d="M74.9867 28.8037C74.0175 28.0015 73.5947 25.4711 73.0049 17.2057C72.8358 14.4216 72.5821 13.0729 72.246 13.0729C71.9511 13.0729 71.1076 14.5062 70.3054 16.2777C68.7031 19.9464 67.6492 20.9177 65.919 20.2413C65.0756 19.9464 64.4012 19.0596 63.3886 16.7829C62.6297 15.096 61.8708 13.3245 61.7017 12.8605C61.0686 11.1736 60.6892 13.24 60.3943 19.8185C60.2685 23.4027 60.0148 26.7766 59.889 27.3251C59.5508 28.7584 58.2433 29.3069 56.9792 28.4635C55.713 27.6613 55.6717 26.2713 56.5997 15.8116C57.6969 3.11643 57.7381 2.94939 60.1839 2.94939C61.7017 2.94939 62.209 3.66706 64.527 9.14851C65.4963 11.4252 66.4676 13.3658 66.7192 13.4503C66.9295 13.4916 68.1112 11.2581 69.3341 8.38959C72.2027 1.68317 73.0874 0.755164 75.1125 2.23173C75.7869 2.73698 76.0405 4.38265 76.884 13.7452C77.4325 19.734 77.9811 25.3845 78.1069 26.228C78.3173 27.4509 78.1914 27.9562 77.5171 28.6326C76.42 29.7297 76.1251 29.7297 74.9867 28.8017V28.8037Z" fill="#6D62FF"/>
<path d="M83.7582 28.4676C81.7331 27.3705 81.566 26.1909 81.9022 15.6879C82.2404 5.22816 82.5353 2.61323 83.5479 1.89763C83.9273 1.60273 86.6268 1.26454 89.5779 1.13874C94.3004 0.885078 95.0614 0.969615 95.5254 1.56148C95.7791 1.94094 96.0306 2.48949 96.0306 2.74315C96.0306 4.17641 94.9335 4.64042 90.8853 4.89408C86.1628 5.23229 86.4144 4.97862 86.2886 9.70116L86.204 12.8647H89.283C92.2774 12.8647 92.4465 12.9059 93.0363 14.0464C93.6694 15.1847 93.6694 15.2693 92.698 16.0715C92.0237 16.62 91.0524 16.8737 89.4933 16.8737C85.9091 16.8737 85.9091 16.8737 85.9091 21.1343C85.9091 25.4361 85.4864 25.1412 90.8008 24.3823C94.6799 23.8338 95.6079 24.1287 95.6079 25.9847C95.6079 27.2922 94.8057 27.6716 90.2935 28.4305C85.7813 29.2327 85.1482 29.2327 83.7561 28.4718L83.7582 28.4676Z" fill="#6D62FF"/>
</g>
<g clip-path="url(#clip1_2023_6094)">
<path d="M159.05 1.17376C161.097 0.996554 163.132 1.63007 164.718 2.93744C171.16 8.27731 170.29 24.0389 163.764 29.3232C162.468 30.3721 161.089 30.7887 159.458 30.9384C152.84 31.067 149.858 24.6609 149.346 18.9794C148.733 12.1864 150.831 2.05114 159.039 1.17572C159.042 1.17526 159.046 1.17423 159.05 1.17376ZM161.949 6.01556C161.252 5.44758 160.201 5.04304 159.299 5.13177C154.836 5.63355 153.566 13.0937 153.683 16.7343C153.785 19.8677 154.924 27.1245 159.223 26.7509C160.375 26.6354 161.421 25.9693 162.116 25.0556C164.616 21.7691 165.134 16.5752 164.744 12.6025C164.528 10.4104 163.671 7.41913 161.949 6.01556Z" fill="#6D62FF"/>
<path d="M135.284 1.26482C138.554 1.08587 142.561 2.1781 144.414 5.04314C145.64 6.93744 145.833 9.38932 145.376 11.5519C144.881 13.9049 143.462 15.9614 141.44 17.2619C141.779 18.0681 142.091 18.9186 142.435 19.7404C143.042 21.1752 143.691 22.5926 144.38 23.9894C144.917 25.0737 145.542 26.1061 146.133 27.1789C146.694 28.1973 146.52 29.3938 145.356 29.9025C143.849 30.5604 142.817 29.7525 141.993 28.5109C140.887 26.8469 140.091 25.0626 139.275 23.2355C138.825 22.1094 138.066 20.2443 137.544 19.2345C136.585 19.6678 134.54 19.8965 133.462 19.9982C133.436 22.0777 133.478 24.1636 133.468 26.2433C133.463 27.3836 133.519 28.4834 133.384 29.6174C133.14 31.6729 130.458 32.0808 129.555 30.3107C129.398 30.0037 129.318 29.5092 129.302 29.1535C129.227 27.5051 129.189 25.8488 129.155 24.1984C129.085 18.8206 129.198 13.4415 129.495 8.07146C129.554 7.13135 129.618 6.19148 129.688 5.25212C129.783 3.94906 129.706 2.48974 131.187 1.95036C132.477 1.48056 133.921 1.35168 135.284 1.26482ZM137.559 5.26189C136.827 5.14019 136.035 5.0206 135.3 5.09099C134.807 5.13127 134.416 5.1523 133.964 5.37614C133.811 6.09426 133.801 7.05016 133.762 7.78825C133.618 10.5197 133.459 13.2671 133.504 16.0031C135.473 15.7187 136.478 15.5108 138.251 14.5412C139.703 13.5939 140.975 12.3014 141.309 10.5871C141.852 7.80897 140.313 5.7196 137.559 5.26189Z" fill="#6D62FF"/>
<path d="M115.101 0.13424C117.773 -0.128194 121.1 0.73031 123.079 2.5444C126.933 6.07593 126.559 12.6068 123.075 16.27C120.374 19.1107 117.18 20.1203 113.387 20.2963C113.39 22.09 113.432 23.8834 113.515 25.6753C113.566 26.1734 113.578 26.6952 113.598 27.2485C113.659 28.926 113.986 31.5778 111.748 31.9751C111.237 32.0654 110.085 31.5612 109.862 31.0756C109.483 30.2527 109.409 29.0945 109.309 28.187C109.137 26.0754 109.117 23.9503 109.101 21.8364C109.055 17.4396 109.182 13.0425 109.483 8.65572L109.715 5.25631C109.807 3.89388 109.733 2.20785 111.002 1.36178C112.129 0.610991 113.773 0.244043 115.101 0.13424ZM115.799 4.17916C115.596 4.1945 115.381 4.21046 115.182 4.22897C114.322 4.30862 113.916 4.38462 113.899 5.35592C113.834 9.0099 113.501 12.7367 113.507 16.3852C115.301 16.1362 116.313 16.0578 117.98 15.1098C118.559 14.7576 118.99 14.4725 119.465 14.0171C123.092 10.5425 121.856 4.15186 116.234 4.17623C116.09 4.17688 115.94 4.168 115.799 4.17916Z" fill="#6D62FF"/>
</g>
<defs>
<clipPath id="clip0_2023_6094">
<rect width="97" height="32" fill="white"/>
</clipPath>
<clipPath id="clip1_2023_6094">
<rect width="60.2899" height="32" fill="white" transform="translate(109)"/>
</clipPath>
</defs>
</svg>
